<svg width="20" height="20" viewBox="0 0 20 20" fill="none" xmlns="http://www.w3.org/2000/svg">
<path fill-rule="evenodd" clip-rule="evenodd" d="M5.91569 1.04169H14.0832C14.9307 1.04169 15.514 1.04169 16.0049 1.21169C16.4636 1.37369 16.8788 1.63933 17.2182 1.98794C17.5575 2.33656 17.8119 2.75875 17.9615 3.22169C18.1249 3.71919 18.124 4.31085 18.124 5.18835V16.9784C18.124 18.2 16.6849 18.9267 15.7374 18.0592C15.707 18.0301 15.6665 18.0139 15.6244 18.0139C15.5824 18.0139 15.5419 18.0301 15.5115 18.0592L15.1082 18.4275C14.3349 19.1359 13.1632 19.1359 12.3899 18.4275C12.2499 18.2968 12.0655 18.2241 11.874 18.2241C11.6825 18.2241 11.4982 18.2968 11.3582 18.4275C10.5849 19.1359 9.41319 19.1359 8.63986 18.4275C8.49989 18.2968 8.31552 18.2241 8.12402 18.2241C7.93252 18.2241 7.74816 18.2968 7.60819 18.4275C6.83486 19.1359 5.66319 19.1359 4.88986 18.4275L4.48736 18.0592C4.45692 18.0299 4.41629 18.0135 4.37402 18.0135C4.33175 18.0135 4.29113 18.0299 4.26069 18.0592C3.31319 18.9259 1.87402 18.2 1.87402 16.9784V5.18919C1.87402 4.31085 1.87402 3.71919 2.03652 3.22169C2.18608 2.75872 2.44044 2.3365 2.77981 1.98788C3.11918 1.63926 3.53441 1.37364 3.99319 1.21169C4.48486 1.04085 5.06819 1.04169 5.91569 1.04169ZM6.03736 2.29169C5.01986 2.29169 4.66902 2.30002 4.40402 2.39252C4.12726 2.4915 3.877 2.65288 3.67266 2.86416C3.46832 3.07544 3.31537 3.33094 3.22569 3.61085C3.13319 3.89335 3.12569 4.26502 3.12569 5.30835V16.9784C3.12569 17.0784 3.17486 17.1384 3.23736 17.1675C3.26587 17.1811 3.29766 17.1863 3.32902 17.1825C3.36285 17.1771 3.39408 17.161 3.41819 17.1367C3.67895 16.8966 4.02043 16.7634 4.37486 16.7634C4.72929 16.7634 5.07076 16.8966 5.33152 17.1367L5.73402 17.505C5.87399 17.6357 6.05836 17.7084 6.24986 17.7084C6.44136 17.7084 6.62572 17.6357 6.76569 17.505C7.13606 17.1638 7.62124 16.9743 8.12486 16.9743C8.62847 16.9743 9.11365 17.1638 9.48402 17.505C9.62399 17.6357 9.80836 17.7084 9.99986 17.7084C10.1914 17.7084 10.3757 17.6357 10.5157 17.505C10.8861 17.1638 11.3712 16.9743 11.8749 16.9743C12.3785 16.9743 12.8637 17.1638 13.234 17.505C13.374 17.6357 13.5584 17.7084 13.7499 17.7084C13.9414 17.7084 14.1257 17.6357 14.2657 17.505L14.6682 17.1367C14.9289 16.8966 15.2704 16.7634 15.6249 16.7634C15.9793 16.7634 16.3208 16.8966 16.5815 17.1367C16.6174 17.17 16.6482 17.18 16.6715 17.1825C16.7026 17.1861 16.7341 17.1809 16.7624 17.1675C16.8249 17.1384 16.8749 17.0775 16.8749 16.9784V5.30835C16.8749 4.26502 16.8665 3.89335 16.7749 3.61085C16.6851 3.33073 16.5319 3.07509 16.3272 2.86379C16.1226 2.65249 15.872 2.49122 15.5949 2.39252C15.3307 2.30085 14.9799 2.29252 13.9624 2.29252L6.03736 2.29169ZM5.20819 6.25002C5.20819 6.08426 5.27404 5.92529 5.39125 5.80808C5.50846 5.69087 5.66743 5.62502 5.83319 5.62502H6.24986C6.41562 5.62502 6.57459 5.69087 6.6918 5.80808C6.80901 5.92529 6.87486 6.08426 6.87486 6.25002C6.87486 6.41578 6.80901 6.57475 6.6918 6.69196C6.57459 6.80917 6.41562 6.87502 6.24986 6.87502H5.83319C5.66743 6.87502 5.50846 6.80917 5.39125 6.69196C5.27404 6.57475 5.20819 6.41578 5.20819 6.25002ZM8.12486 6.25002C8.12486 6.08426 8.1907 5.92529 8.30792 5.80808C8.42513 5.69087 8.5841 5.62502 8.74986 5.62502H14.1665C14.3323 5.62502 14.4913 5.69087 14.6085 5.80808C14.7257 5.92529 14.7915 6.08426 14.7915 6.25002C14.7915 6.41578 14.7257 6.57475 14.6085 6.69196C14.4913 6.80917 14.3323 6.87502 14.1665 6.87502H8.74986C8.5841 6.87502 8.42513 6.80917 8.30792 6.69196C8.1907 6.57475 8.12486 6.41578 8.12486 6.25002ZM5.20819 9.16669C5.20819 9.00093 5.27404 8.84196 5.39125 8.72475C5.50846 8.60754 5.66743 8.54169 5.83319 8.54169H6.24986C6.41562 8.54169 6.57459 8.60754 6.6918 8.72475C6.80901 8.84196 6.87486 9.00093 6.87486 9.16669C6.87486 9.33245 6.80901 9.49142 6.6918 9.60863C6.57459 9.72584 6.41562 9.79169 6.24986 9.79169H5.83319C5.66743 9.79169 5.50846 9.72584 5.39125 9.60863C5.27404 9.49142 5.20819 9.33245 5.20819 9.16669ZM8.12486 9.16669C8.12486 9.00093 8.1907 8.84196 8.30792 8.72475C8.42513 8.60754 8.5841 8.54169 8.74986 8.54169H14.1665C14.3323 8.54169 14.4913 8.60754 14.6085 8.72475C14.7257 8.84196 14.7915 9.00093 14.7915 9.16669C14.7915 9.33245 14.7257 9.49142 14.6085 9.60863C14.4913 9.72584 14.3323 9.79169 14.1665 9.79169H8.74986C8.5841 9.79169 8.42513 9.72584 8.30792 9.60863C8.1907 9.49142 8.12486 9.33245 8.12486 9.16669ZM5.20819 12.0834C5.20819 11.9176 5.27404 11.7586 5.39125 11.6414C5.50846 11.5242 5.66743 11.4584 5.83319 11.4584H6.24986C6.41562 11.4584 6.57459 11.5242 6.6918 11.6414C6.80901 11.7586 6.87486 11.9176 6.87486 12.0834C6.87486 12.2491 6.80901 12.4081 6.6918 12.5253C6.57459 12.6425 6.41562 12.7084 6.24986 12.7084H5.83319C5.66743 12.7084 5.50846 12.6425 5.39125 12.5253C5.27404 12.4081 5.20819 12.2491 5.20819 12.0834ZM8.12486 12.0834C8.12486 11.9176 8.1907 11.7586 8.30792 11.6414C8.42513 11.5242 8.5841 11.4584 8.74986 11.4584H14.1665C14.3323 11.4584 14.4913 11.5242 14.6085 11.6414C14.7257 11.7586 14.7915 11.9176 14.7915 12.0834C14.7915 12.2491 14.7257 12.4081 14.6085 12.5253C14.4913 12.6425 14.3323 12.7084 14.1665 12.7084H8.74986C8.5841 12.7084 8.42513 12.6425 8.30792 12.5253C8.1907 12.4081 8.12486 12.2491 8.12486 12.0834Z" fill="#ED9017"/>
</svg>
