<svg width="20" height="20" viewBox="0 0 20 20" fill="none" xmlns="http://www.w3.org/2000/svg">
<path d="M6.66675 5.83333H3.33341C2.89139 5.83333 2.46746 6.00893 2.1549 6.32149C1.84234 6.63405 1.66675 7.05797 1.66675 7.5V15.8333C1.66675 16.2754 1.84234 16.6993 2.1549 17.0118C2.46746 17.3244 2.89139 17.5 3.33341 17.5H16.6667C17.1088 17.5 17.5327 17.3244 17.8453 17.0118C18.1578 16.6993 18.3334 16.2754 18.3334 15.8333V7.5C18.3334 7.05797 18.1578 6.63405 17.8453 6.32149C17.5327 6.00893 17.1088 5.83333 16.6667 5.83333H13.3334M6.66675 5.83333V3C6.66675 2.86739 6.71943 2.74021 6.81319 2.64645C6.90696 2.55268 7.03414 2.5 7.16675 2.5H12.8334C12.966 2.5 13.0932 2.55268 13.187 2.64645C13.2807 2.74021 13.3334 2.86739 13.3334 3V5.83333M6.66675 5.83333H13.3334" stroke="#ED9017" stroke-width="1.5"/>
</svg>
