<svg width="25" height="21" viewBox="0 0 25 21" fill="none" xmlns="http://www.w3.org/2000/svg">
<path d="M4.39095 9.75001C4.38889 9.01205 4.53246 8.28094 4.81344 7.59856C5.09442 6.91618 5.50728 6.29594 6.02837 5.7734C6.54946 5.25085 7.16854 4.83626 7.85013 4.55337C8.53172 4.27049 9.26243 4.12488 10.0004 4.12488C10.7384 4.12488 11.4691 4.27049 12.1507 4.55337C12.8323 4.83626 13.4513 5.25085 13.9724 5.7734C14.4935 6.29594 14.9064 6.91618 15.1874 7.59856C15.4683 8.28094 15.6119 9.01205 15.6098 9.75001V9.75001C15.6098 12.5481 16.1953 14.1718 16.7109 15.0592C16.7664 15.1541 16.796 15.2619 16.7965 15.3718C16.7971 15.4816 16.7687 15.5897 16.7142 15.6852C16.6597 15.7806 16.581 15.8599 16.486 15.9152C16.391 15.9705 16.2831 15.9997 16.1732 16H3.82693C3.71703 15.9997 3.60914 15.9705 3.51415 15.9152C3.41917 15.8599 3.34045 15.7805 3.28592 15.6851C3.2314 15.5897 3.20302 15.4815 3.20362 15.3716C3.20423 15.2617 3.23381 15.1539 3.28938 15.0591C3.80526 14.1716 4.39095 12.548 4.39095 9.75001H4.39095Z" stroke="#18191C" stroke-opacity="0.5" stroke-width="1.5" stroke-linecap="round" stroke-linejoin="round"/>
<path d="M7.5 16V16.625C7.5 17.288 7.76339 17.9239 8.23223 18.3928C8.70107 18.8616 9.33696 19.125 10 19.125C10.663 19.125 11.2989 18.8616 11.7678 18.3928C12.2366 17.9239 12.5 17.288 12.5 16.625V16" stroke="#18191C" stroke-opacity="0.5" stroke-width="1.5" stroke-linecap="round" stroke-linejoin="round"/>
<path d="M14.3306 2.87408C15.6023 3.67694 16.6275 4.8156 17.2929 6.16437" stroke="#18191C" stroke-opacity="0.5" stroke-width="1.5" stroke-linecap="round" stroke-linejoin="round"/>
<path d="M2.70703 6.16437C3.37246 4.8156 4.39765 3.67694 5.66941 2.87408" stroke="#18191C" stroke-opacity="0.5" stroke-width="1.5" stroke-linecap="round" stroke-linejoin="round"/>
<circle cx="18" cy="7" r="6" fill="#ED9017" stroke="white" stroke-width="2"/>
</svg>
