<svg width="20" height="20" viewBox="0 0 20 20" fill="none" xmlns="http://www.w3.org/2000/svg">
<path d="M3.3335 15C3.3335 14.1159 3.68469 13.2681 4.30981 12.6429C4.93493 12.0178 5.78277 11.6666 6.66683 11.6666H13.3335C14.2176 11.6666 15.0654 12.0178 15.6905 12.6429C16.3156 13.2681 16.6668 14.1159 16.6668 15C16.6668 15.442 16.4912 15.8659 16.1787 16.1785C15.8661 16.491 15.4422 16.6666 15.0002 16.6666H5.00016C4.55814 16.6666 4.13421 16.491 3.82165 16.1785C3.50909 15.8659 3.3335 15.442 3.3335 15Z" stroke="#ED9017" stroke-width="1.5" stroke-linejoin="round"/>
<path d="M10 8.33331C11.3807 8.33331 12.5 7.21402 12.5 5.83331C12.5 4.4526 11.3807 3.33331 10 3.33331C8.61929 3.33331 7.5 4.4526 7.5 5.83331C7.5 7.21402 8.61929 8.33331 10 8.33331Z" stroke="#ED9017" stroke-width="1.5"/>
</svg>
