<svg width="18" height="18" viewBox="0 0 18 18" fill="none" xmlns="http://www.w3.org/2000/svg">
<g clip-path="url(#clip0_496_4507)">
<path d="M9.00023 17.3571C7.11697 15.2837 4.56297 13.9407 1.78738 13.5643C1.47145 13.5293 1.17967 13.3786 0.968356 13.1411C0.757039 12.9037 0.641162 12.5964 0.64309 12.2786V1.92856C0.643078 1.74286 0.683296 1.55935 0.760979 1.39067C0.838661 1.22198 0.951963 1.07213 1.09309 0.951422C1.23173 0.832906 1.394 0.745244 1.56912 0.694259C1.74425 0.643274 1.92821 0.630133 2.1088 0.655707C4.76289 1.0962 7.19087 2.41891 9.00023 4.40999M9.00023 17.3571V4.40999M9.00023 17.3571C10.8835 15.2837 13.4375 13.9407 16.2131 13.5643C16.529 13.5293 16.8208 13.3786 17.0321 13.1411C17.2434 12.9037 17.3593 12.5964 17.3574 12.2786V1.92856C17.3574 1.74286 17.3172 1.55935 17.2395 1.39067C17.1618 1.22198 17.0485 1.07213 16.9074 0.951422C16.7687 0.832906 16.6065 0.745244 16.4313 0.694259C16.2562 0.643274 16.0723 0.630133 15.8917 0.655707C13.2376 1.0962 10.8096 2.41891 9.00023 4.40999" stroke="#ED9017" stroke-linecap="round" stroke-linejoin="round"/>
</g>
<defs>
<clipPath id="clip0_496_4507">
<rect width="18" height="18" fill="white"/>
</clipPath>
</defs>
</svg>
