<svg width="16" height="16" viewBox="0 0 16 16" fill="none" xmlns="http://www.w3.org/2000/svg">
<g clip-path="url(#clip0_460_3084)">
<path d="M15.8542 0.146028C15.9234 0.21536 15.9707 0.303502 15.9903 0.399505C16.0098 0.495508 16.0008 0.595141 15.9642 0.686028L10.1452 15.233C10.0939 15.3611 10.0083 15.4726 9.89771 15.5552C9.78715 15.6378 9.65596 15.6883 9.51856 15.7011C9.38116 15.7139 9.2429 15.6886 9.11897 15.6279C8.99505 15.5672 8.89027 15.4734 8.81618 15.357L5.63818 10.362L0.643176 7.18403C0.526494 7.11001 0.432527 7.0052 0.371646 6.88116C0.310764 6.75711 0.285334 6.61866 0.298161 6.48108C0.310988 6.3435 0.361574 6.21214 0.444337 6.10148C0.5271 5.99083 0.638822 5.9052 0.767176 5.85403L15.3142 0.0370277C15.4051 0.000439957 15.5047 -0.00863977 15.6007 0.0109164C15.6967 0.0304726 15.7848 0.0778028 15.8542 0.147028V0.146028ZM6.63618 10.07L9.39718 14.408L14.1302 2.57603L6.63618 10.07ZM13.4232 1.86903L1.59118 6.60203L5.93018 9.36203L13.4232 1.86903Z" fill="white"/>
</g>
<defs>
<clipPath id="clip0_460_3084">
<rect width="16" height="16" fill="white"/>
</clipPath>
</defs>
</svg>
